<svg preserveAspectRatio="none" width="100%" height="100%" overflow="visible" style="display: block;" viewBox="0 0 22 25" fill="none" xmlns="http://www.w3.org/2000/svg">
<g id="Icon">
<path id="Vector" d="M2.5 17H8V18H2.5C1.1193 18 0 16.8807 0 15.5V6.5C0 5.1193 1.1193 4 2.5 4H15.5C16.8807 4 18 5.1193 18 6.5V10H17V6.5C17 5.6729 16.3271 5 15.5 5H2.5C1.6729 5 1 5.6729 1 6.5V15.5C1 16.3271 1.6729 17 2.5 17ZM22 13.25V18.75C22 19.9926 20.9927 21 19.75 21H11.25C10.0074 21 9 19.9926 9 18.75V13.25C9 12.0073 10.0074 11 11.25 11H19.75C20.9927 11 22 12.0073 22 13.25ZM21 13.25C21 12.5607 20.4393 12 19.75 12H11.25C10.5607 12 10 12.5607 10 13.25V18.75C10 19.4393 10.5607 20 11.25 20H11.5928C12.2718 18.7682 13.7575 17.8795 15.499 17.8795C17.2386 17.8795 18.7239 18.7682 19.4051 20H19.75C20.4393 20 21 19.4393 21 18.75V13.25ZM15.5526 12.7045C15.012 12.7045 14.4957 12.9251 14.0987 13.3257C13.6675 13.7608 13.4315 14.3481 13.4341 14.9793C13.4346 16.258 14.3847 17.298 15.5526 17.298C16.743 17.298 17.6756 16.277 17.6756 14.9737C17.6756 13.7224 16.7232 12.7045 15.5526 12.7045Z" fill="var(--fill-0, white)"/>
</g>
</svg>
