<svg preserveAspectRatio="none" width="100%" height="100%" overflow="visible" style="display: block;" viewBox="0 0 21 25" fill="none" xmlns="http://www.w3.org/2000/svg">
<g id="Icon">
<path id="Vector" d="M12.0771 15.1194L12.3831 15.2912L11.272 18.1668C11.2221 18.2961 11.1601 18.4203 11.0867 18.5379C11.0119 18.6362 10.9295 18.7286 10.8403 18.8141L8.0435 21.1852C7.95849 21.2798 7.85568 21.3566 7.74094 21.4114C7.6262 21.4663 7.50178 21.4979 7.3748 21.5046C7.16314 21.5101 6.9565 21.4397 6.7922 21.3061C6.61943 21.1509 6.51515 20.9336 6.5022 20.7017C6.49697 20.5683 6.52176 20.4354 6.57476 20.3129C6.62776 20.1904 6.70761 20.0813 6.8084 19.9938L9.7092 17.502L10.6814 14.064C10.7051 14.094 10.7195 14.1311 10.7449 14.1602C10.9593 14.4048 11.2112 14.6138 11.4912 14.7793C11.6887 14.8977 11.885 15.0115 12.0771 15.1194ZM20.6623 10.1126C20.6164 10.0126 20.55 9.92348 20.4674 9.85091C20.3848 9.77835 20.2878 9.72401 20.1827 9.69144C20.0777 9.65887 19.967 9.6488 19.8578 9.66189C19.7486 9.67498 19.6434 9.71093 19.549 9.7674L18.6655 10.2464L17.582 10.7256L16.8354 9.6939L16.0889 8.6624C15.9942 8.53258 15.8922 8.40828 15.7834 8.2901C15.4884 7.96293 15.1278 7.70156 14.7251 7.523C14.4673 7.41838 14.1971 7.34753 13.9211 7.3122C13.8293 7.2986 13.7263 7.2962 13.6289 7.2882C13.4941 7.2774 13.3706 7.2551 13.2251 7.2551C13.075 7.2551 12.9189 7.2609 12.7568 7.2725L9.7268 7.4883C9.50229 7.4986 9.28915 7.59006 9.127 7.74568C8.96485 7.9013 8.86471 8.1105 8.8452 8.3344L8.44 11.4075C8.41547 11.5132 8.41342 11.6229 8.43398 11.7294C8.45455 11.8359 8.49728 11.937 8.5594 12.0259C8.62151 12.1149 8.70163 12.1898 8.79456 12.2458C8.88749 12.3018 8.99115 12.3377 9.09882 12.3511C9.2065 12.3645 9.31579 12.3551 9.4196 12.3235C9.52341 12.292 9.61943 12.2389 9.70144 12.1679C9.78344 12.0968 9.8496 12.0093 9.89563 11.9111C9.94165 11.8128 9.96651 11.706 9.9686 11.5975L10.34 9.0855L11.5576 8.999C11.6237 8.98674 11.6918 8.99185 11.7553 9.01383C11.8188 9.03581 11.8755 9.07391 11.9199 9.12439C11.9642 9.17488 11.9947 9.23602 12.0083 9.30183C12.022 9.36764 12.0183 9.43585 11.9976 9.4998L11.2898 11.9685C10.8723 13.1013 11.6498 13.8253 12.5674 14.2476L15.874 16.1035L13.8415 17.8335C12.8505 18.5825 13.8679 20.0394 14.9381 19.0335L17.8159 16.5955C17.9119 16.4998 17.9853 16.3838 18.0308 16.256C18.0762 16.1282 18.0925 15.9919 18.0785 15.8571C18.0645 15.7222 18.0205 15.5922 17.9498 15.4765C17.879 15.3608 17.7834 15.2624 17.6697 15.1884L14.4316 13.065L15.0703 10.8291C15.0869 10.7605 15.1238 10.6985 15.1763 10.6512C15.2287 10.604 15.2943 10.5737 15.3642 10.5643C15.4342 10.555 15.5054 10.5671 15.5684 10.5989C15.6314 10.6308 15.6833 10.6809 15.7173 10.7428L16.6673 12.1328C16.7735 12.2911 16.933 12.4061 17.1168 12.4568C17.3005 12.5075 17.4964 12.4906 17.6688 12.4092L20.2049 11.1919C20.3111 11.1582 20.4086 11.1019 20.491 11.0269C20.5733 10.952 20.6385 10.86 20.6819 10.7575C20.7254 10.6549 20.7461 10.5442 20.7427 10.4329C20.7394 10.3216 20.7119 10.2123 20.6623 10.1126ZM14.5539 6.1215C14.8407 6.28755 15.1663 6.375 15.4977 6.375C15.8291 6.375 16.1547 6.28755 16.4415 6.1215C16.722 5.95602 16.956 5.72205 17.1215 5.4415C17.2876 5.15468 17.375 4.82912 17.375 4.4977C17.375 4.16628 17.2876 3.84072 17.1215 3.5539C16.9548 3.27546 16.721 3.04322 16.4415 2.8784C16.1547 2.71235 15.8291 2.6249 15.4977 2.6249C15.1663 2.6249 14.8407 2.71235 14.5539 2.8784C14.2766 3.04445 14.0446 3.2765 13.8787 3.5539C13.7125 3.84068 13.625 4.16625 13.625 4.4977C13.625 4.82915 13.7125 5.15472 13.8787 5.4415C14.0434 5.72101 14.2756 5.9548 14.5539 6.1215ZM2.8 7H7.2C7.26969 7.00669 7.34001 6.99874 7.40645 6.97666C7.47289 6.95458 7.53397 6.91885 7.58579 6.87177C7.63761 6.82469 7.67901 6.76729 7.70734 6.70327C7.73568 6.63925 7.75031 6.57001 7.75031 6.5C7.75031 6.42999 7.73568 6.36075 7.70734 6.29673C7.67901 6.23271 7.63761 6.17531 7.58579 6.12823C7.53397 6.08115 7.47289 6.04542 7.40645 6.02334C7.34001 6.00126 7.26969 5.99331 7.2 6H2.8C2.73031 5.99331 2.65999 6.00126 2.59355 6.02334C2.52711 6.04542 2.46603 6.08115 2.41421 6.12823C2.36239 6.17531 2.32099 6.23271 2.29265 6.29673C2.26432 6.36075 2.24969 6.42999 2.24969 6.5C2.24969 6.57001 2.26432 6.63925 2.29265 6.70327C2.32099 6.76729 2.36239 6.82469 2.41421 6.87177C2.46603 6.91885 2.52711 6.95458 2.59355 6.97666C2.65999 6.99874 2.73031 7.00669 2.8 7ZM5.2 18H0.8C0.730309 17.9933 0.659989 18.0013 0.593551 18.0233C0.527114 18.0454 0.466026 18.0812 0.414208 18.1282C0.362391 18.1753 0.320987 18.2327 0.292655 18.2967C0.264322 18.3608 0.249687 18.43 0.249687 18.5C0.249687 18.57 0.264322 18.6392 0.292655 18.7033C0.320987 18.7673 0.362391 18.8247 0.414208 18.8718C0.466026 18.9188 0.527114 18.9546 0.593551 18.9767C0.659989 18.9987 0.730309 19.0067 0.8 19H5.2C5.26969 19.0067 5.34001 18.9987 5.40645 18.9767C5.47289 18.9546 5.53397 18.9188 5.58579 18.8718C5.63761 18.8247 5.67901 18.7673 5.70734 18.7033C5.73568 18.6392 5.75031 18.57 5.75031 18.5C5.75031 18.43 5.73568 18.3608 5.70734 18.2967C5.67901 18.2327 5.63761 18.1753 5.58579 18.1282C5.53397 18.0812 5.47289 18.0454 5.40645 18.0233C5.34001 18.0013 5.26969 17.9933 5.2 18ZM0.7917 11H6.2083C6.27732 11.0055 6.34674 10.9967 6.41219 10.9741C6.47764 10.9515 6.53769 10.9155 6.58857 10.8686C6.63945 10.8216 6.68005 10.7646 6.70782 10.7012C6.73559 10.6377 6.74993 10.5692 6.74993 10.5C6.74993 10.4308 6.73559 10.3623 6.70782 10.2988C6.68005 10.2354 6.63945 10.1784 6.58857 10.1314C6.53769 10.0845 6.47764 10.0485 6.41219 10.0259C6.34674 10.0033 6.27732 9.99447 6.2083 10H0.7917C0.722676 9.99447 0.653256 10.0033 0.58781 10.0259C0.522364 10.0485 0.462311 10.0845 0.411431 10.1314C0.360551 10.1784 0.319947 10.2354 0.292176 10.2988C0.264405 10.3623 0.250068 10.4308 0.250068 10.5C0.250068 10.5692 0.264405 10.6377 0.292176 10.7012C0.319947 10.7646 0.360551 10.8216 0.411431 10.8686C0.462311 10.9155 0.522364 10.9515 0.58781 10.9741C0.653256 10.9967 0.722676 11.0055 0.7917 11ZM7.75 14.5C7.74313 14.3608 7.68139 14.2301 7.5783 14.1364C7.47521 14.0426 7.33918 13.9936 7.2 14H2.8C2.73031 13.9933 2.65999 14.0013 2.59355 14.0233C2.52711 14.0454 2.46603 14.0812 2.41421 14.1282C2.36239 14.1753 2.32099 14.2327 2.29265 14.2967C2.26432 14.3607 2.24969 14.43 2.24969 14.5C2.24969 14.57 2.26432 14.6393 2.29265 14.7033C2.32099 14.7673 2.36239 14.8247 2.41421 14.8718C2.46603 14.9188 2.52711 14.9546 2.59355 14.9767C2.65999 14.9987 2.73031 15.0067 2.8 15H7.2C7.33918 15.0064 7.47521 14.9574 7.5783 14.8636C7.68139 14.7699 7.74313 14.6392 7.75 14.5Z" fill="var(--fill-0, white)"/>
</g>
</svg>
