<svg preserveAspectRatio="none" width="100%" height="100%" overflow="visible" style="display: block;" viewBox="0 0 21 25" fill="none" xmlns="http://www.w3.org/2000/svg">
<g id="Icon">
<path id="Vector" d="M12.7949 11.204C12.7949 12.6076 11.7857 13.7072 10.4975 13.7072C9.2337 13.7072 8.2056 12.5871 8.2051 11.21C8.2022 10.5302 8.4576 9.8977 8.9242 9.4291C9.3538 8.9977 9.9125 8.76 10.4976 8.76C11.7644 8.76 12.7949 9.8564 12.7949 11.204ZM18 9.5V15.5C18 16.8807 16.8807 18 15.5 18H5.5C4.1193 18 3 16.8807 3 15.5V9.5C3 8.1193 4.1193 7 5.5 7H15.5C16.8807 7 18 8.1193 18 9.5ZM17 9.5C17 8.6729 16.3271 8 15.5 8H5.5C4.6729 8 4 8.6729 4 9.5V15.5C4 16.3271 4.6729 17 5.5 17H6.0123C6.6252 15.4741 8.3753 14.3333 10.4395 14.3333C12.5015 14.3333 14.2514 15.4741 14.8674 17H15.5C16.3271 17 17 16.3271 17 15.5V9.5ZM5.6728 19.4927C5.4067 19.2769 4.9999 19.4589 5 19.7937L5.0002 20.7999H3.7938C2.3739 20.7999 1.2167 19.6446 1.2137 18.2257L1.2093 16.0577C1.2088 15.7823 0.9852 15.5587 0.7093 15.5587C0.4315 15.587 0.2088 15.7823 0.2093 16.0597L0.2137 18.2277C0.2176 20.1974 1.8236 21.8 3.7938 21.8H5.0003V22.6195C5.0005 22.9542 5.4072 23.1361 5.6732 22.9203L7.4149 21.5077C7.6088 21.3505 7.6088 21.0631 7.4149 20.9059L5.6728 19.4927ZM20.7865 6.7725C20.7821 4.8028 19.1761 3.2002 17.2064 3.2002H15.9996V2.3807C15.9994 2.046 15.5927 1.8642 15.3267 2.0799L13.585 3.4925C13.3911 3.6498 13.3911 3.9371 13.585 4.0944L15.3271 5.5074C15.5932 5.7232 16 5.5412 15.9999 5.2064L15.9997 4.2003H17.2063C18.6257 4.2003 19.783 5.3556 19.7864 6.7745L19.7908 8.9425C19.7913 9.2179 20.0149 9.4415 20.2908 9.4415C20.5672 9.4405 20.7913 9.2169 20.7908 8.9405L20.7865 6.7725Z" fill="var(--fill-0, black)"/>
</g>
</svg>
