<svg preserveAspectRatio="none" width="100%" height="100%" overflow="visible" style="display: block;" viewBox="0 0 17 25" fill="none" xmlns="http://www.w3.org/2000/svg">
<g id="Icon">
<path id="Vector" d="M0.5 9.5C0.2236 9.5 0 9.2764 0 9V6.5C0 5.1211 1.1216 4 2.5 4H5C5.2764 4 5.5 4.2236 5.5 4.5C5.5 4.7764 5.2764 5 5 5H2.5C1.6729 5 1 5.6729 1 6.5V9C1 9.2764 0.7764 9.5 0.5 9.5ZM17 18.5V16C17 15.7236 16.7764 15.5 16.5 15.5C16.2236 15.5 16 15.7236 16 16V18.5C16 19.3271 15.3271 20 14.5 20H12C11.7236 20 11.5 20.2236 11.5 20.5C11.5 20.7764 11.7236 21 12 21H14.5C15.8784 21 17 19.8789 17 18.5ZM5.5 20.5C5.5 20.2236 5.2764 20 5 20H2.5C1.6729 20 1 19.3271 1 18.5V16C1 15.7236 0.7764 15.5 0.5 15.5C0.2236 15.5 0 15.7236 0 16V18.5C0 19.8789 1.1216 21 2.5 21H5C5.2764 21 5.5 20.7764 5.5 20.5ZM17 9V6.5C17 5.1211 15.8784 4 14.5 4H12C11.7236 4 11.5 4.2236 11.5 4.5C11.5 4.7764 11.7236 5 12 5H14.5C15.3271 5 16 5.6729 16 6.5V9C16 9.2764 16.2236 9.5 16.5 9.5C16.7764 9.5 17 9.2764 17 9ZM3.9677 18H13.0324C13.1948 18 13.314 17.9524 13.3878 17.8563C13.4626 17.7607 13.5 17.6335 13.5 17.4748C13.5 17.204 13.3996 16.8485 13.1977 16.409C12.9969 15.97 12.6916 15.5269 12.2821 15.0809C11.8726 14.6349 11.3547 14.2599 10.7275 13.956C10.1003 13.6521 9.358 13.4999 8.5005 13.4999C7.6489 13.4999 6.9095 13.6521 6.2823 13.956C5.6561 14.2599 5.1363 14.6348 4.7238 15.0809C4.3113 15.527 4.0041 15.97 3.8023 16.409C3.6005 16.8485 3.5 17.204 3.5 17.4748C3.5 17.6335 3.5374 17.7606 3.6122 17.8563C3.687 17.9524 3.8053 18 3.9677 18ZM8.4956 12.25C8.9581 12.25 9.3792 12.1287 9.7577 11.8862C10.1362 11.6437 10.4377 11.3136 10.662 10.8949C10.8873 10.4762 11 10.0012 11 9.4703C11 8.9787 10.8873 8.5253 10.662 8.1101C10.4376 7.695 10.1362 7.3644 9.7577 7.1188C9.3792 6.8732 8.9581 6.75 8.4956 6.75C8.0321 6.75 7.611 6.8733 7.2335 7.1188C6.855 7.3644 6.5545 7.695 6.3331 8.1101C6.1107 8.5252 6 8.9786 6 9.4703C6 10.0012 6.1107 10.4747 6.3331 10.8898C6.5545 11.3049 6.8549 11.6355 7.2335 11.8811C7.611 12.1267 8.0321 12.25 8.4956 12.25Z" fill="var(--fill-0, white)"/>
</g>
</svg>
